<?xml version="1.0" encoding="utf-8"?>
<!-- Generator: Adobe Illustrator 28.2.0, SVG Export Plug-In . SVG Version: 6.00 Build 0)  -->
<svg version="1.1" id="Capa_2_00000001645317994714072020000000673838232210999972_"
	 xmlns="http://www.w3.org/2000/svg" xmlns:xlink="http://www.w3.org/1999/xlink" x="0px" y="0px" viewBox="0 0 433.4 173.6"
	 style="enable-background:new 0 0 433.4 173.6;" xml:space="preserve">
<style type="text/css">
	.st0{fill:#FFFFFF;}
</style>
<g id="Capa_3">
	<g>
		<path class="st0" d="M42.2,79.8c0,8-2.5,12.9-6.9,16.6c-4,3.2-8.9,5.1-14.3,5.1s-10.3-1.9-14.3-5.1C2.4,92.8,0,87.8,0,79.8v-5.5
			c0-2.4,2.1-4.3,4.5-4.3h7c2.4,0,4.3,1.9,4.3,4.3v5.8c0,2.4,0.5,3.7,1.5,4.7c1,0.9,2.3,1.4,3.6,1.4c1.5,0,3-0.7,4-1.8
			c0.9-1,1.4-2.2,1.4-4.4v-4.9c0-3.2-0.3-5.4-1.2-7c-1.1-2.1-2.9-3.4-5.5-5l-7.1-4.6C7.6,55.4,4.3,52.8,2.3,49
			C0.8,45.9,0,41.9,0,35.9V31C0,23,2.4,18,6.8,14.4c3.9-3.2,8.9-5.1,14.3-5.1s10.3,1.9,14.3,5.1C39.7,18,42.1,23,42.1,31v4.4
			c0,2.4-2.2,4.3-4.6,4.3h-6.9c-2.4,0-4.3-1.9-4.3-4.3v-4.7c0-2.4-0.7-3.7-1.6-4.7c-1-0.9-2.3-1.4-3.6-1.4c-1.5,0-2.9,0.7-3.8,1.8
			c-0.9,1-1.4,2.2-1.4,4.4v3.6c0,3.1,0.4,5.2,1.2,6.8c1,2.1,2.7,3.4,5.5,5.2l7.1,4.6c4.7,3.1,8,5.5,10,8.9c1.9,3.1,2.6,7.1,2.6,13.4
			V79.8L42.2,79.8z"/>
		<path class="st0" d="M91.6,96.5c0,1.2-0.4,2.4-1.2,3.3c-0.9,1-2.2,1.7-3.8,1.7c-1.5,0-2.7-0.6-3.8-1.4l-0.4-0.3
			c-0.7-0.6-1.5-0.9-2.6-0.9c-1.2,0-2.5,0.7-4.3,1.5c-1.7,0.9-3.8,1.1-6,1.1c-7.6,0-18.9-6.8-18.9-20.5v-1.1
			c0-4.6,1.1-11.3,6.6-15.7c4.2-3.3,8.6-4.3,12.3-4.3h4.3c1.7,0,2.7-1.1,2.7-2.5v-6.1c0-2.2-0.6-3.5-1.4-4.5c-1-1.1-2.3-1.8-3.8-1.8
			c-1.3,0-2.6,0.5-3.6,1.4c-1,1-1.7,2.3-1.7,4.5v1c0,2.4-1.9,4.3-4.3,4.3h-6.7c-2.4,0-4.3-1.9-4.3-4.3v-0.5c0-7.7,2.4-12.6,6.7-16.1
			c3.8-3.1,8.6-4.9,13.8-4.9s10,1.9,13.8,4.9c4.3,3.5,6.7,8.5,6.7,16.1L91.6,96.5L91.6,96.5z M71,72.8c-1.3,0-2.6,0.6-3.6,1.4
			c-1,1-1.5,2.3-1.7,4.7v1.8c0.1,2.4,0.7,3.7,1.7,4.7c1,0.9,2.3,1.4,3.6,1.4c1.5,0,2.8-0.7,3.8-1.8c0.9-1,1.4-2.2,1.4-4.4v-5.4
			c0-1.4-1.1-2.5-2.7-2.5L71,72.8L71,72.8z"/>
		<path class="st0" d="M116.1,96.4c0,2.4-1.9,4.3-4.3,4.3h-6.7c-2.4,0-4.3-1.9-4.3-4.3v-82c0-2.4,1.9-4.3,4.3-4.3h6.7
			c2.4,0,4.3,1.9,4.3,4.3V96.4z"/>
		<path class="st0" d="M125,39.7c-0.2-2.1-0.4-3.6-0.4-4.4c0-2.4,1.9-4.3,4.3-4.3h7.1c3.1,0,4.6,1.3,4.8,4.3l3.7,47.8
			c0.1,1.7,0.9,2.7,2.5,2.7s2.4-1.1,2.5-2.7l3.7-47.8c0.2-3,1.8-4.3,4.8-4.3h7c2.4,0,4.3,1.9,4.3,4.3c0,0.8-0.2,3-0.4,5l-4.7,50.4
			c-0.7,7.1-2.7,10-11.2,10h-11.6c-8.4,0-10.4-2.8-11.2-10L125,39.7L125,39.7z"/>
		<path class="st0" d="M217.4,96.5c0,1.2-0.4,2.4-1.2,3.3c-0.9,1-2.2,1.7-3.8,1.7c-1.5,0-2.7-0.6-3.8-1.4l-0.4-0.3
			c-0.7-0.6-1.5-0.9-2.6-0.9c-1.2,0-2.5,0.7-4.3,1.5c-1.6,0.9-3.8,1.1-6,1.1c-7.6,0-18.9-6.8-18.9-20.5v-1.1
			c0-4.6,1.1-11.3,6.6-15.7c4.2-3.3,8.6-4.3,12.3-4.3h4.3c1.6,0,2.7-1.1,2.7-2.5v-6.1c0-2.2-0.6-3.5-1.4-4.5c-1-1.1-2.3-1.8-3.8-1.8
			c-1.3,0-2.6,0.5-3.6,1.4c-1,1-1.6,2.3-1.6,4.5v1c0,2.4-1.9,4.3-4.3,4.3h-6.7c-2.4,0-4.3-1.9-4.3-4.3v-0.5c0-7.7,2.4-12.6,6.7-16.1
			c3.8-3.1,8.6-4.9,13.8-4.9s10,1.9,13.8,4.9c4.3,3.5,6.7,8.5,6.7,16.1L217.4,96.5L217.4,96.5z M196.8,72.8c-1.3,0-2.6,0.6-3.6,1.4
			c-1,1-1.5,2.3-1.6,4.7v1.8c0.1,2.4,0.7,3.7,1.6,4.7c1,0.9,2.3,1.4,3.6,1.4c1.5,0,2.9-0.7,3.8-1.8c0.9-1,1.4-2.2,1.4-4.4v-5.4
			c0-1.4-1.1-2.5-2.7-2.5L196.8,72.8L196.8,72.8z"/>
		<path class="st0" d="M266,96.4c0,2.4-1.9,4.3-4.3,4.3H255c-2.4,0-4.3-1.9-4.3-4.3v-82c0-2.4,1.9-4.3,4.3-4.3h6.7
			c2.4,0,4.3,1.9,4.3,4.3V96.4z"/>
		<path class="st0" d="M315.7,96.5c0,1.2-0.4,2.4-1.2,3.3c-0.9,1-2.2,1.7-3.8,1.7c-1.5,0-2.7-0.6-3.8-1.4l-0.4-0.3
			c-0.7-0.6-1.5-0.9-2.6-0.9c-1.2,0-2.5,0.7-4.3,1.5c-1.6,0.9-3.8,1.1-6,1.1c-7.6,0-18.9-6.8-18.9-20.5v-1.1
			c0-4.6,1.1-11.3,6.6-15.7c4.2-3.3,8.6-4.3,12.3-4.3h4.3c1.6,0,2.7-1.1,2.7-2.5v-6.1c0-2.2-0.5-3.5-1.4-4.5c-1-1.1-2.3-1.8-3.8-1.8
			c-1.3,0-2.6,0.5-3.6,1.4c-1,1-1.6,2.3-1.6,4.5v1c0,2.4-1.9,4.3-4.3,4.3h-6.7c-2.4,0-4.3-1.9-4.3-4.3v-0.5c0-7.7,2.4-12.6,6.7-16.1
			c3.8-3.1,8.6-4.9,13.8-4.9s10,1.9,13.8,4.9c4.3,3.5,6.7,8.5,6.7,16.1L315.7,96.5L315.7,96.5z M295.1,72.8c-1.3,0-2.6,0.6-3.6,1.4
			c-1,1-1.5,2.3-1.6,4.7v1.8c0.1,2.4,0.7,3.7,1.6,4.7c1,0.9,2.3,1.4,3.6,1.4c1.5,0,2.9-0.7,3.8-1.8c0.9-1,1.4-2.2,1.4-4.4v-5.4
			c0-1.4-1.1-2.5-2.7-2.5L295.1,72.8L295.1,72.8z"/>
	</g>
	<g>
		<path class="st0" d="M6.7,172.6c-0.2,0-0.2-0.2-0.4-0.3c-0.1-0.1-0.3,0.1-0.3,0.1c-0.3-0.2-0.5-0.4-0.8-0.6
			c-0.7-0.3-1.7,0.2-2.6-0.4c0.2-0.9,0.1-1.3,0.7-2.1c-0.1-0.1,0-0.4-0.3-0.4c0.3-1.9,0.1-3.5,0.5-5.4c-0.3-1.7,0.2-3.5,0.2-5.3
			l-0.1-0.4c0-1.2,0.5-2.5,0.4-3.8c0-0.2-0.2-0.4-0.2-0.5c0-0.3,0.6-0.8,0-1.1c0.7-5.2,0.7-11.3,0.6-17.2c0.3-4.6,0-9.9-0.3-15.2
			c-0.2-2.4,0-4.5-0.4-6.4c-0.1-0.3-0.4-0.7-0.2-1.2c0.3,0.1,0.6-0.1,1,0.2c1.4-1,3.3,0.3,5-0.5c5,0.9,9-0.7,14.2-0.3
			c0.2-0.2,0.6-0.1,0.6-0.4c0.7,0.6,2.2,0,3.6,0c0.4,0,0.6,0.2,1,0.3c1.4,0,2.8-0.2,4.2,0.2c0.3,0,0.6,0,0.9-0.1
			c-0.1,0.3,1.3,0,2,0.1c2.2,0.1,4.3,0.3,6.3-0.2c0.9,0.4,2.1-0.1,2.9,0.4c0.7-0.4,2-0.5,2.8,0c0.1,1.9-0.1,3.2,0.2,4.5
			c0,0.2-0.2,0.1-0.3,0.2c-0.2,1-0.6,2.6-1.1,3.3c-0.3,1.2-0.1,1.9-0.5,2.8c0.3,0.2-0.3,0.9,0.2,0.8c-0.7,1.3-0.9,3-1.4,4.3
			c-0.2,0-0.2,0.1-0.4,0.1c0.1,0.4-0.1,0.5-0.1,0.9c-0.3,0.1-0.6,0.3-0.9,0.4c-0.7-1.5-3.7-0.5-4.8-1.2c-0.3,0.2-0.3,0.1-0.7,0.2
			c-0.2-0.1-0.2-0.3-0.3-0.4c-1.5,0.1-2.8-0.3-4.4-0.5c-2.3-0.3-5.5-0.3-7.9-0.8c-0.1,0.2-0.4,0.2-0.4,0.3c-1.9-0.6-5-0.1-7.4,0.1
			c-0.3,0.4-0.5,1.9-0.2,2c-0.3,0.5-0.4,1.9-0.5,3c-0.1,1.1-0.2,2.2,0.2,2.7c-0.4,1-0.2,2.9-0.4,4.3c4-0.3,8.5-1.1,11.6-0.7
			c0.6-0.4,2.6-0.8,3.2-0.2c0.2,0.3,0.1,0.9,0.2,1.3c0.2,0.7,0.2,1.4,0,2.3c-0.1,0.5-0.4,0.9-0.5,1.1c-0.1,0.4,0.3,0.2,0.3,0.5
			c-0.8,0,0.1,1.1-0.5,0.9c0.4,1.3-0.4,1.9-0.4,3.3c0.2-0.1,0.2-0.2,0.3-0.3c-0.3,1.1-0.3,2.2-0.9,3.4c-0.2,0-0.4,0-0.4,0.2
			c-0.4,0.1-0.4-0.3-0.7-0.3c-2,0.4-4.4-0.1-6.6-0.1c-1.1,0.1-2.3,0.4-3.3,0.1c-0.7,0.5-2.1,0.4-3.3,0.6c0.2,2.5-0.7,4.6-0.4,7.4
			c-0.4,0.9-0.5,2.3-0.4,3.5c-0.1,0.9-0.4,1.9-0.4,3.3c-0.1,0.4,0.2,1,0.2,1.3c0,0.7-0.4,1.4-0.3,2.1c0,0.2,0.2,0.4,0.2,0.6
			c-0.1,0.9-0.5,1.6,0.1,2.4c-0.5,0.2-0.5,0.6-0.9,0.8c-1.5,0.7-3.8,0.1-5.1,0.8C8.2,172.8,7.4,172.8,6.7,172.6L6.7,172.6z"/>
		<path class="st0" d="M51.6,172.9c-0.2-1.1,0.8-2,0-2.8c-0.1-0.8,0.3-1.6,0.2-2.4c0-0.3-0.3-0.5-0.3-0.8c-0.1-1.7,0.9-3.3,0.5-5.1
			c0.7-0.4,1.2,0,2,0.3c1.5-0.4,4-0.1,6.1-0.3c0.1,0,0.3-0.3,0.4-0.3c0.2,0,0.4,0.4,0.6,0.4c1.7,0.2,4.5-0.6,6-0.1
			c3.9-0.7,8.1-1.9,11.8-2.3c0.5-1.1,2.6-0.4,3.5-0.4c0.2,0.3,0.6,0.7,0.3,1.1c0.9,0.5,0.8,1.2,1.1,2.2c0.3,1.5-0.1,2.8,0.2,4.2
			c-0.3,0.1-0.1,0.4-0.3,0.4c0.1,1-0.5,1.6-0.3,2.6c-0.3,0.4-0.6,0.8-1.1,1.1c-5.8,0.4-10.6,0.8-16.7,0.9c-0.6,0.1-1.2,0.4-1.8,0.4
			c-0.6,0-1.3-0.3-1.9-0.2c-1.2,0-2.8,0.4-4,0.6c-0.6,0.1-1.2,0.1-1.7,0.3c-0.5,0.1-0.8,0.4-1.2,0.4c-0.9,0.2-2.2-0.1-3,0.2
			C51.9,173,51.7,173,51.6,172.9L51.6,172.9z M53.7,155.2c-0.7-0.4-0.5-1-0.4-1.7c0.2-1.5-0.3-3.6,0.2-5c-0.9-3.4,0.4-8.4,0.2-11.9
			c0.3-0.6,0.2-1.4,0.2-2.2c0-3.2-0.2-7.7-0.2-9.9c0.2-0.2,0.2-0.5,0.3-0.7c0-3.2,0.7-8,0.3-11.3c0.1-0.2-0.1-0.2-0.3-0.2
			c0.1-0.4,0.3-0.8,0.3-1.1c0.3-0.4,0.7,0,0.8,0.2c1.8-0.4,4.3-0.3,6.7,0.2c0.3,0.1,0.6,0.3,0.9,0.4c1.1,0.2,2.2,0,3.3,0.1l6.5,0.3
			c1.1,0.1,2.1-0.2,3-0.1c0.7,0.1,1.4,0.5,2.1,0c1.6-0.1,3.4-0.1,4.4,0.6c0.3-0.1,0.4-0.2,0.8-0.2c0.2,0.1,0.3,0.3,0.5,0.5
			c-0.6,3.8-2.1,7.5-1.8,11.3c-0.2,0.3-0.5,0.6-0.7,1c0.1,0.1,0.1,0.2,0.1,0.3c-0.1,0.1-0.1,0-0.1-0.1c0,0.2-0.2,0.3-0.3,0.4
			c-1.2-0.1-2.3-0.3-3.5-0.5c-1.2-0.2-2.2-0.5-3.3-0.8c-0.3,0-0.4,0.1-0.7,0c-1-0.2-1.9-0.7-2.8-0.9c-2.1-0.3-4.1-0.2-6.3-0.3
			c-0.4,1.6,0.2,3.6-0.2,5.1c1.1,0.9,3.1,0.1,4.8,0.7c1.3-0.4,2.3,0.6,3.3,0.7c0.8,0,1.5-0.3,2.4,0c0.2,0,0.3,0.3,0.5,0.3
			c0.6,0.1,1.2-0.1,1.7,0.3c-0.1,0.5,0.6,1.4,0.3,2.1c-0.1,0.3-0.2,0.2-0.3,0.4c-0.2,0.9-0.2,1.9-0.3,2.8c-0.1,0.4-0.3,2-0.3,2
			c-0.7,0.8-3.4,0-4.5-0.1c-1.5-0.1-2.8-0.4-4.2-0.6c-1.2-0.1-1.9,0-3,0.1c-0.6,2,0.4,4.5,0,6.5c1.3,0.1,3,0.2,4.1,0
			c-0.1,0.1-0.1,0.2,0,0.2c3.4-0.4,6,0.9,9.9,0.2c0.3-0.2,0.3,0.1,0.4,0.2c0.2-0.3,0.7-0.3,1-0.5c0.3,0.1,0.4,0.4,0.7,0.4
			c-0.4,1.1,0.3,2,0.4,3.3c0.1,0.2-0.1,0.4-0.1,0.8c0.1,1.1,0.6,2.6,0.4,3.6c-0.2,0.5-0.8,0.9-0.4,1.6c-0.2,0.2-0.3,0.4-0.5,0.6
			c-0.7,0-0.9,0.1-1.5,0c-2.3,0.6-5.1,0.4-7.4,0.5c-2.8,0.3-5.3-0.3-8,0.5c-1.6-0.5-3.7,0.4-5.8,0.1
			C56.2,155.4,54.9,154.8,53.7,155.2L53.7,155.2z"/>
		<path class="st0" d="M115.9,172.2c-0.9,0-1.8,0.1-2.7-0.4c-1.2,0.4-2.2-0.4-3.2-0.8c-1.3-0.5-2.8-0.3-3.7-0.6l-0.9-0.6
			c-1.5-0.7-3.6-0.7-4.5-2.3c-1.1-0.1-1.2-1.1-2.1-1.3c0.1-0.3-0.2-0.3-0.1-0.4c-0.2-0.2-0.4-0.3-0.5-0.4c-1-1.9-2.7-2.8-4-4.3
			s-2.1-3.9-2.8-5.9c-0.9-1-1.2-2.7-2.1-3.6c0.3-1.1-0.4-2.2-0.6-3.5c-0.3-1.7-0.3-3.6-0.4-5.1c0-3,0.3-6.1,1.8-8.5
			c0.1-0.9,0.5-1.5,0.9-2.1c-0.2-1.3,0.8-2.8,0.8-4.3c1.4-2.2,2.2-4.6,3.8-6.7c0.3,0.1,0.3-0.1,0.4-0.1c1.5-1.9,3-3.7,4.8-5.3
			c0.3,0.1,0.3-0.2,0.5-0.1c1.4-1.9,4.7-1.9,6.5-3.5c2.3-0.6,5-1.1,7-1.5c3.6,0.3,7.2-0.3,10.7,0.5c0.8,0.6,1.9,1,3,1.2
			c1.1,1,3.5,1.3,4.1,2.6c0.3-0.2,0.4,0.3,0.6,0c3.7,3.5,8.4,5.1,9.6,10.9c0,0.3-0.4-0.3-0.3,0.3c0.3,0.1,0.8,1.2,0.4,1.7
			c-3,0.7-5.8,1.6-8.8,2.5c-0.3,0-0.1,0.4-0.3,0.4c-0.6-0.1-1.1,0.3-1.4-0.1c-0.3,0.2-0.6,0.7-0.9,0.7c-1.1-0.1-0.6-1.6-0.8-2.6
			c-0.3-1.3-1.3-1.9-2-2.4c0-0.3-0.4-0.1-0.4-0.5c-2.3-1.1-4.9-1.9-7.4-2.6c-0.7,0.3-1.9,0.2-2.5,0.6c-0.3-0.1-0.4-0.1-0.6-0.1
			c-0.3,0.2,0.3,0.2,0.1,0.4c-1,0.3-1.8,0.2-2.8,0.3c-2.5,0.3-3.6,2.9-5.6,3.8c0.1,0.3-0.2,0.3-0.1,0.5c-0.3-0.1-0.2,0.2-0.5,0.1
			c-1.6,2.5-4.4,4-5.6,7c-0.6,0.2-0.4,1.1-1.1,1.3c-0.1,1-0.4,1.8-0.9,2.4c-0.3,2.1-1.2,3.9-0.8,5.9c0.3,1.3,1.3,2.5,1.4,4
			c1.6,1.4,1.8,3.7,3,5.3c1.3,1.8,3.3,2.3,5.3,3.1c0.2,0.2,0,0.2,0,0.4c1.3,0.6,3.3,0.7,4.7,1.6c4.5-0.4,7.4-2.4,11.3-4
			c0.1-1.3,1.2-1.6,2.1-1.9c0.1-0.4,0-0.6-0.2-0.9c0.3,0,0.3-0.3,0.5-0.4c3.2,0.9,4.4,3.6,7.9,4.2c1.1,1.1,2.7,1,3.4,2.3
			c2.8,0,2.5,2.7,0.7,3.4c-0.1,0.4-0.2,0.5,0.1,0.9c-1.6,0.8-1.7,2.5-2.6,3.6c-0.1,0.1-0.3,0.1-0.4,0.1c-1.1,1.6-2.8,2.6-4.7,3.4
			c-1.2,1.9-4.5,2.2-7,2.4c-1.2,0.8-3.6,0.5-5.8,0.6C118.9,172.9,116.7,173,115.9,172.2L115.9,172.2z"/>
		<path class="st0" d="M148.2,172.6c0.3-0.4,0.4-0.8,0.4-1.4c-0.1-0.3-0.2,0.3-0.5,0.1c0-3.3,0.4-7.2,0.4-10.6c0.1-0.4-0.1,0,0-0.4
			c0.6-2.2-0.1-4.8-0.2-7.7c0-1.1,0.2-2.6,0.2-3.8c0.1-0.8,0.1-1.6,0.4-2c-0.4-3.5,0.6-7.4-0.2-11.4c0.2-1,0.1-1.9-0.2-2.7
			c0.6-0.6,0.1-2,0-3c0-0.3,0.3-0.7,0.3-1.1c0-1.3-0.4-2.9-0.3-4.2c0.1-0.2,0.1-0.4,0.4-0.4c0-0.2-0.3-0.1-0.4-0.3
			c-0.1-3.8-0.1-7-0.3-10.2c-0.3-0.3-0.4-0.6-0.5-0.9c0.4-0.8,2.1-0.2,2.6-0.7c1.6-0.4,3.7-1.2,6.2-0.6c1.3,0.3,2.5,0.9,4,1
			c0.1,0.5,0.1,0.8,0.4,0.9c-0.1,0.3-0.3,0.4-0.4,0.6c0.5,2.5,0.6,6.2,0.7,9.3c-0.6,2.3-0.1,7.9-0.4,10.7c0.4,0.3,0,2,0.1,3.1
			c2.1-0.3,4.2-0.4,6.1-0.6c1.6-0.2,3.3-0.7,5-0.5c0.2-0.1,0-0.2,0.3-0.3c2.7-0.4,6.1-1,9.5-1.1c0.2-4.3,0.2-10.1,0.4-13.5
			c-0.7-2.7,0.8-6.7-0.8-8.8l0.3-0.6c1.1-0.1,2,0.3,3-0.3c0.4-0.1,0.4,0.4,0.5-0.1c0.4-0.1,0.4,0.1,0.6,0.2c0.5-0.4,2.6,0.3,3.4-0.2
			c1.4,0.3,3.2,0.7,4.5,0.4c0,0.2-0.2,0.2-0.2,0.3c0.3,0.1,0.2-0.3,0.4-0.2c-0.3,0.3,0.2,0.2,0.4,0.3c0.2-0.2,0.1-0.5,0.6-0.3
			c0,0.2-0.3,0.1-0.3,0.3c0.3,0,0.4,0,0.4-0.2c0.2,0,0.1,0.4,0.4,0.3c-0.7,2.7,0.4,4.8,0.4,7.6c0,2.4-0.3,3.9-0.4,6.4
			c-0.1,0.3,0.4,0.2,0.4,0.4h-0.4c0.2,1.2,0,2.6-0.1,3.9c-0.1,0.8,0.2,1.9,0.2,2.9v1.7c0.1,1.1,0,2.2,0,3.3c0,1.3,0.4,2.7,0.4,3.9
			c0,5.4-0.2,10.6,0.2,16.4c0.6,1.4,0.4,3.1,0.3,4.5c0,0.3,0.3,0.5,0.3,0.8s-0.3,0.5-0.4,0.8c-0.1,1.4,0,3.7-0.2,5.1
			c0.2,0.4,0.4,0.4,0.2,1.1c-0.7,0.5-1.6,0.4-2.4,0.9c-0.3,0.3-0.2,0.4-0.3,0.7c-0.6,0.4-2.8-1.8-3.3-1.2c-2,0.4-2.6,1.4-4.3,1.6
			c-0.2-0.4-0.7,0-0.9-0.5c-1.1,0.1-2.7-0.3-3.9-0.2c-0.2-0.3-0.5-0.4-0.8-0.6c0-2.2,0.9-3.3,0.7-5.3c0.5-2.4-0.1-4.6,0.4-6.9
			c-0.2-1.4,0.1-2.9,0-4.3c-0.1-2.8-0.4-5.8-0.2-8.8c-3.1-0.1-4.9,0.1-7.1-0.4c-3.6,0.3-7.6-0.2-11.8-0.4c-0.1,0.5-0.1,2.2,0.2,2.7
			c-0.1,0.3-0.4,0.8,0.2,0.9c-0.7,0-0.2,1.2-0.2,1.9c0.1,1.5-0.4,2.2-0.3,3.3c0,0.4,0.3,0.7,0.3,1.1c0.1,0.8,0,1.7,0,2.5
			c0.1,4.6-0.2,9.6,0.3,12.7c-0.1,0.4,0,0.3-0.3,0.5c0.4,0.2,0.4-0.3,0.8,0.1c-0.1,0.7-0.1,0.9-0.4,1.4c-1.9-0.3-3.6,1.1-5.6,0.2
			c-0.2,0.1-1.5,0.4-1.9,0.4c-1.9,0.2-4.3,0.2-6.5,0.4C148.5,173,148.5,172.7,148.2,172.6L148.2,172.6z"/>
		<path class="st0" d="M229.2,172.8c-1.1,0-2.4,0.5-3.4-0.3c-2.3-0.2-4.2-0.7-7.2-0.7c-0.3,0-0.3-0.2-0.4-0.3
			c-2.6-0.2-4.9-0.1-7.2-0.2c-1.1,0-2.7-0.2-3.5,0.4c-0.6,0.2-1.8-0.1-2.3,0.1c-0.4-0.3-0.8-0.5-1.6-0.5c0-0.1,0.2-0.2,0.2-0.3
			c-0.7,0-1.7,0-2-0.6c0.5-2,0.5-4.3,0.8-6.3c0.5-1.4,0.4-3,0.7-4.3c0-0.2,0.3-0.1,0.4-0.1c0.2-0.4-0.3-0.2-0.2-0.5
			c0.4,0.1,0-1,0.6-1.1c1.4,0,2.2,0.6,3.6,0.6v0.4c1.3-0.1,1.9,0.6,3,0.8c0.7,0.6,2,0.7,3.1,1.1c0.3-0.3,0.4,0.1,0.6-0.3
			c0.3,0.1-0.2,0.3,0.1,0.4c0.1,0,0.2,0,0.2,0.1c1.9-0.3,3.8,0.1,5.1-0.5c4.2,0.4,10-0.7,14.5-0.9c0.2,0,0.1-0.2,0.2-0.4
			c1.7-0.1,4.3-0.1,6.8,0c-0.2,0.4,0.4,0.4,0.4,0.7c0.2,0.4,0,1.6,0.2,2.3c0,0.4,0.5,0.6,0.1,0.8c0.6,0.9,0.1,1.2,0.5,2
			c-0.1-0.1-0.2-0.2-0.4-0.2c0.4,0.4,0.4,1.1,0.4,1.8h-0.4c0.4,0.3,0.4,1.1-0.2,1.2c0.4,0.2-0.2,0.5,0.4,0.5c0,0.2-0.3,0.1-0.4,0.1
			c0.2,0.2,0.4,0.1,0.4,0.4c-0.4,0.3-0.1,0.9,0,1.9c-0.2,0-0.1-0.3-0.3-0.3c-0.1,0.7,0.1,1.5-0.5,2.2c-1.1,0.6-1.9,0-3.3-0.3
			c-1.8-0.2-3.3,0.2-5.1,0.4C231.9,173.1,230.6,172.7,229.2,172.8L229.2,172.8z M232.7,153.5c-1.7-2.2-2.2-6.8-2.1-9.9
			c-5.3-0.2-7.9-0.4-12.5-1.8c-0.5,2-0.5,4.3-1.2,5.8c0.4,0.4,0.1,1.7-0.4,2.1c0,0.5-0.1,0.9-0.4,1.2c0.9,1.8-2.2,3.1-4.2,2.5
			c-0.2,0-0.4,0.1-0.4,0.3c-1.1-0.2-1.9-0.2-3-0.2c-0.1-0.4-0.7-0.4-1.2-0.4c-0.7-0.4-1.5-0.8-2.2-1.3c-0.1,0.1-0.5-0.1-0.4,0.1
			c-1.1-0.5-0.4-1.9-0.2-3c0.1-0.4-0.4-0.4-0.3-0.9c0.5,0,0.6-1,0.5-1.1c1.1-2.6,1.9-5.7,2.8-8.5c0.3-0.2,0.4,0.1,0.5-0.1
			c0-0.2,0.1-0.4-0.1-0.4c1.1-2.1,1.2-5.7,2.6-8.4c0.3-1.5,0.4-2.8,1.1-3.8c0-0.3-0.1-0.4-0.3-0.5c0.3-0.2,0.4-0.6,0.6-0.8
			c0.3-2.7,1.2-5.8,2-8.2c0-0.2,0.2-0.9,0.2-1.1c0,0-0.3-0.2-0.4-0.1c0.1-0.1,0.4-0.1,0.4-0.2c0.2-0.2,0.1-0.8,0.2-1.2
			c0.3-0.7,0.8-1,0.5-2.2c4.6-0.8,7.5,0.9,11.1,0.7v0.3c1.9,0.3,4.6,0.7,6.5,1.9c0.4,2.1,0.3,4.3,1.2,6.4c0.3,2.1,0.4,4.3,1.6,5.7
			c-0.3,0.4,0.2,0.7,0,1.1c0.9,1.5,1.1,4.4,1.9,6.3c-0.2,0.4,0.3,0.7,0,0.9c0.8,1.3,0.9,3,1.1,4.6c0,0.2,0.1,0.3,0.3,0.3
			c0,2.8,0.9,7.4,2.8,9.1c-0.2,0.6,0.7,1.4,0.5,2.1c0.4,0.1,0.5,0.7,0.7,1.1c-0.3,0.4-0.6,0.5-0.7,1c-1.8,0.1-2.3,1.1-3.6,1
			c-0.1,0.2-0.4,0.2-0.4,0.4c-1.1,0.2-2-0.2-2.8,0C234.5,153.9,233.8,153.4,232.7,153.5L232.7,153.5z M223.5,119.1
			c-0.2,0.3-0.5,0.4-0.5,0.9c0,0.2,0.2,0.1,0.2,0.3l-0.6,2.8c0,0.2-0.3,0.3-0.3,0.4c-0.1,0.3,0.3,0.7,0.1,1c0,0.1-0.3,0.1-0.4,0.2
			c-1,3.8-0.9,7.1-2,10.7c0.8-0.1,1.6,0.2,1.9-0.3c1.7,0.7,4.3,0,6.7,0.4C226.8,130,224.8,124.9,223.5,119.1L223.5,119.1z"/>
		<path class="st0" d="M252.6,172.9c-1.2,0.1-2.5-0.5-4.2-0.5c-0.3-0.4-0.4-1,0-1.4c0-0.3-0.4-0.1-0.4-0.3c0.1-0.6,0.2-1.4-0.3-1.7
			c0.5-2.6,0.2-6.8,0.3-9.5c0.6-0.4,1.1-0.3,1.7-0.6c3.1,0.2,7-1.1,9.9-1.3c1.1-0.1,2.2,0.2,3.3-0.1c0.2,0.6,1.1,0.4,1.5,0.8
			c-0.1,0.6-0.1,1.1,0,1.7c0.2,1-0.4,1.8-0.4,5c0.1,2.6,0.5,5.3-0.7,7.2c-1.5,0.7-3.4,0-4.9,0.6c-1.6,0-3.8,0.2-5.6,0.4
			C252.7,173.2,252.8,172.8,252.6,172.9L252.6,172.9z"/>
		<path class="st0" d="M294.9,172.2c-0.9,0-1.8,0.1-2.7-0.4c-1.1,0.4-2.2-0.4-3.2-0.8c-1.3-0.5-2.8-0.3-3.7-0.6l-0.9-0.6
			c-1.5-0.7-3.5-0.7-4.5-2.3c-1.1-0.1-1.2-1.1-2.1-1.3c0.1-0.3-0.2-0.3-0.1-0.4c-0.2-0.2-0.4-0.3-0.5-0.4c-1-1.9-2.7-2.8-4-4.3
			s-2.1-3.9-2.8-5.9c-0.9-1-1.1-2.7-2.1-3.6c0.3-1.1-0.4-2.2-0.6-3.5c-0.3-1.7-0.4-3.6-0.4-5.1c0-3,0.3-6.1,1.8-8.5
			c0.1-0.9,0.5-1.5,0.9-2.1c-0.2-1.3,0.8-2.8,0.8-4.3c1.4-2.2,2.2-4.6,3.8-6.7c0.3,0.1,0.3-0.1,0.4-0.1c1.5-1.9,3-3.7,4.8-5.3
			c0.3,0.1,0.3-0.2,0.5-0.1c1.4-1.9,4.7-1.9,6.5-3.5c2.3-0.6,5-1.1,7-1.5c3.5,0.3,7.2-0.3,10.7,0.5c0.8,0.6,1.9,1,3,1.2
			c1.1,1,3.5,1.3,4.1,2.6c0.3-0.2,0.4,0.3,0.6,0c3.7,3.5,8.4,5.1,9.6,10.9c0,0.3-0.4-0.3-0.3,0.3c0.3,0.1,0.8,1.2,0.4,1.7
			c-3,0.7-5.8,1.6-8.8,2.5c-0.3,0-0.1,0.4-0.3,0.4c-0.6-0.1-1.1,0.3-1.4-0.1c-0.3,0.2-0.6,0.7-0.9,0.7c-1.1-0.1-0.6-1.6-0.8-2.6
			c-0.3-1.3-1.3-1.9-2-2.4c0-0.3-0.4-0.1-0.4-0.5c-2.3-1.1-4.9-1.9-7.5-2.6c-0.7,0.3-1.9,0.2-2.5,0.6c-0.4-0.1-0.4-0.1-0.6-0.1
			c-0.4,0.2,0.3,0.2,0.1,0.4c-1,0.3-1.8,0.2-2.8,0.3c-2.5,0.3-3.5,2.9-5.6,3.8c0.1,0.3-0.2,0.3-0.1,0.5c-0.3-0.1-0.2,0.2-0.5,0.1
			c-1.6,2.5-4.4,4-5.6,7c-0.6,0.2-0.4,1.1-1.1,1.3c-0.1,1-0.4,1.8-0.9,2.4c-0.4,2.1-1.1,3.9-0.8,5.9c0.3,1.3,1.3,2.5,1.4,4
			c1.6,1.4,1.8,3.7,3,5.3c1.3,1.8,3.3,2.3,5.3,3.1c0.2,0.2,0,0.2,0,0.4c1.3,0.6,3.3,0.7,4.7,1.6c4.5-0.4,7.5-2.4,11.4-4
			c0.1-1.3,1.1-1.6,2.1-1.9c0.1-0.4,0-0.6-0.2-0.9c0.3,0,0.3-0.3,0.5-0.4c3.2,0.9,4.4,3.6,7.9,4.2c1.1,1.1,2.7,1,3.4,2.3
			c2.8,0,2.5,2.7,0.7,3.4c-0.1,0.4-0.2,0.5,0.1,0.9c-1.6,0.8-1.7,2.5-2.6,3.6c-0.1,0.1-0.3,0.1-0.4,0.1c-1.1,1.6-2.8,2.6-4.7,3.4
			c-1.2,1.9-4.5,2.2-7,2.4c-1.2,0.8-3.6,0.5-5.8,0.6C297.9,172.9,295.7,173,294.9,172.2L294.9,172.2z"/>
		<path class="st0" d="M362.8,135.2c-0.3,1-0.3,2.1-0.5,2.9c-0.2,0.6-0.7,0.9-1,1.4c-0.6,0.9-1,2-1.8,2.5c-0.6,1.9-1.9,3.4-3.3,4.6
			c0,0.3-0.3,0.4-0.4,0.7c-1.9,1.8-4.9,3.1-7.8,2.6c-2.8,0.4-7.4,0.5-9.6-0.8c-1.9-0.4-3.7-0.7-5.1-1.7l-0.4-0.3
			c-1.6-1.5-3.3-2.8-4.4-4.6c-0.3-0.5-0.4-1.1-0.8-1.7c-0.9-1.6-1.7-2.8-2.2-5.1c-0.3-1-0.5-2.3-0.3-2.8c0-0.1-0.2-0.1-0.4-0.1
			c-0.1-0.3,0.4-0.6-0.1-0.6c0-4.3,1.1-7.2,2.5-10.6c1-1.1,1.5-2.3,2.5-2.9v-0.6c0.9-0.5,1.3-1.5,1.7-2.6c1.1-0.8,3-2.2,4.3-2.9
			c1.8-0.2,3.4-1.3,5.3-1.4c1.2-0.1,2.7,0,3.6,0.5c0.8-0.3,2.4-0.4,3.4-0.3c1.1,0.2,1.8,0.8,2.9,1.4c1,0.4,2.1,0.7,2.9,1.2
			c1.1,0.6,1.6,1.9,2.6,2.3c0.3,0.7,0.6,1.2,1.2,1.5c-0.1,0.4,0.1,0.5,0.2,0.7c0.4,0.5,0.9,1,1.3,1.6l1.3,1.3c0.9,1.2,1,2.8,1.5,4
			c0.2,0.3,1.3,2,1.4,2.8c0,0.3-0.4,0.6-0.4,1s0.4,0.7,0.4,1c0,0.5-0.1,0.9,0,1.7C363.6,132.9,363.1,133.9,362.8,135.2L362.8,135.2z
			 M361.2,160.7c0,0.2-0.2,0.2-0.4,0.2c-0.4,2.9,0.7,5.6-0.3,8.5c-1.6,0.9-4.3,0.1-7,0.4c-1.5,0.2-3,0.2-4.3,0.3
			c-0.6,0.1-1.1,0.5-1.8,0.4c-1.3,0.5-4,0.5-5.7,1c-0.5,0.2-1.7,0.3-2.3,0.6c-1.1,0.6-4,1.1-5.2,0.6c-0.2,0.2-0.4,0.3-0.6,0.4
			c-0.3,0-0.2-0.3-0.4-0.3c-0.3,0.1-0.4,0.2-0.5,0.4c-0.7,0-1.1-0.2-2-0.1c-0.5-0.8-0.9-1.8-1.6-2.4c-0.5-2-0.4-3.7-0.5-5.5
			c0-0.8,0.4-1.6,0.4-2.3c0-1.2,0.1-2.5-0.5-3.3c0.3,0,0.3-0.3,0.4-0.4c-0.1-0.4-0.4-0.6-0.6-1c0.4,0,0.6-0.1,0.8-0.4
			c0.3,0.1,0.9,0.2,1-0.1c1.6,0.2,5-0.7,6.2-0.6c0.2,0-0.2-0.3,0-0.5c0.7,0.4,1.6-0.1,2.6,0.1c0.4-0.1,0-0.2,0.3-0.4
			c1.4,0.5,4.3,0,6.2-0.4c3.5,0.5,7.2-0.4,10.2-0.4c0.4,0,0.5,0.4,1,0.3c0.2,0,0.1-0.1,0-0.1c0.6,0.1,1.6-0.4,2.7-0.1
			c0.3,0.7,0.4,1,0.5,1.5C360,157,361.1,159.4,361.2,160.7L361.2,160.7z M354.6,125.9c-0.2,0-0.3-0.1-0.3-0.2
			c-0.2-1.6-0.5-2.3-1.4-3.1c-0.4,0-0.3-0.1-0.6,0c0.2-0.4-0.2-0.2-0.1-0.4c-0.2-0.1-0.2,0.1-0.3,0.2c-1.6-1.4-3.6-1.4-5.9-1.9
			c-0.1,0-0.1,0.2-0.2,0.2c-0.7-0.2-2.3-0.6-3.1-0.3c-0.3,0.1-1.4,1-1.7,1.1c-1.1,0.7-1.9,2.1-2.6,3.1c-0.3-0.1-0.3,0.2-0.4,0.1
			c-0.4,0.7-0.6,1.6-1.2,2c0.2,0.4-0.8,1.2-0.3,1.7c-0.4,0.2-0.4,0.6-0.2,0.9c-0.4,0.4-0.5,1.1-0.6,1.6c-0.1,1.2,0.2,2.8,0.7,3.9
			c0.1,1.4,1.5,3,2.2,4.3c3,1.1,5.7-0.1,8.1-0.6c1.2-0.2,2.3-0.6,2.8-1.4c0.2-0.1,0.3-0.1,0.4-0.1c0.5-0.4,1.1-1,1.7-1.2
			c1.1-1.8,2-3.6,2.6-5.9C354,128.3,354.4,127,354.6,125.9L354.6,125.9z"/>
		<path class="st0" d="M433.4,169.6c-0.6-0.1-0.4,0.2-0.5,0.4c-1.7-0.1-3.2,0.8-4.4,0.2c0,0.3-0.4,0.4-0.7,0.3
			c0.1-0.1,0.4,0,0.4-0.2c-3,0.4-8.2,1.1-11.5,1.3c0-0.1-0.1,0-0.2-0.1c-0.6-1.1,0.1-3,0-4.6c0-0.4-0.3-0.9-0.3-1.2
			c-0.1-0.9,0.4-1.9,0.2-2.7h0.3c0-0.1-0.2-0.1-0.3-0.1c-0.1-1.1,0.2-2,0.3-3.1c0.2-2.6-0.9-4.8-0.4-7.2c-0.2-2.1-0.3-11.2-0.2-13.5
			c-0.5-1.6-0.7-3.8-0.9-5.7c-0.6,1.3-1.3,2.2-1.4,3.8c-0.1,0.1-0.3,0.1-0.4,0.1c-0.1,0.9-1.1,4.1-1,4.9c-0.9,0.4-0.8,2-1.4,2.3
			c0.1,0.4-0.7,4.3-0.8,4.6c-0.1,0.2,0,0.3,0.2,0.3c-0.8,1.4-1.4,3.3-1.6,4.7c0,0.4-0.9,1.8-0.8,2.2c0.2,0.4,0.2,0-0.1,0.4
			c-0.5,1.2-0.8,2.8-1.1,4.1c-0.3,1.1-0.8,2.2-1.2,3.4c-0.1,0.4,0.2,0.3,0.1,0.6c-1.1,1.4-4.3,2.1-5.9,1.3c-0.1,0-0.1,0.2-0.1,0.3
			c-0.8,0.2-2-0.1-1.6-1.1c-0.6-0.9-1-2.1-1.5-3v-0.6c-0.2-0.4-0.4-0.9-0.7-1.2c-0.3-1.3-0.8-2-1.2-2.9c-0.6-2.6-1.6-4.7-2.3-7.2
			c0-0.2-0.1-0.3-0.3-0.3c-0.4-1.9-1.2-3.5-1.9-5.5c-0.4-1.7-0.8-2.8-1.6-3.9c-0.1-1-0.5-1.8-1.1-2.4c0.3-0.5-0.4-0.9-0.3-1.5
			c-0.5-1.2-0.9-2.6-1.2-3.7c0-0.2-0.2-0.1-0.3-0.1c-0.1-1.5-0.9-2.8-1.6-4.3c-0.3,2.9-0.5,6.7-0.2,10c-0.4,1.8-0.5,3.7-0.2,5.3
			c-0.8,2.1-0.2,5.2-0.5,7.8c0.1,0.3,0.1,0.6,0.4,0.6c-0.7,1.3,0,3.8-0.6,5.2c0,1.5,0,3.7-0.3,4.8c0.1,2.4,0,4.4,0.6,7.1
			c0,0.2-0.3,0.1-0.3,0.4c0.1,0.1,0.3,0.3,0.3,0.2c0.1,0.3,0.3,0.4,0.5,0.7c0,0.3-0.3,0.4-0.2,0.7c-1.4,0-2.8,0-4.1,0.3
			c-1.1,0.1-2.3,0.2-3.2,0.4c-1.5,0.4-2.8,1.4-4.2,1.1c-0.1-0.1-0.2-0.2-0.2-0.3c-1.1-0.4-2-0.2-3-0.8c0.3-0.4,0.4-1.1-0.2-1.4
			c0.2-1.4,0.4-2.8,0.1-3.7c0.7-4.7,0.1-8.8,0.6-14c0-0.4,0.2,0.2,0.4,0.1c0.1-0.3-0.3-0.3-0.4-0.4c0.1-2,0.3-3.2,0.2-5.9
			c0-0.4,0.3,0.1,0.4-0.2c0-0.3-0.2-0.4-0.2-0.6c-0.3,0.2,0.3,0.5-0.3,0.5c-0.1-0.4,0-0.4,0-1c0.2,0,0.2,0.1,0.2,0.2
			c0.2,0,0.1-0.3,0.1-0.4c0-0.3-0.2,0.1-0.4-0.1c0.1-0.4,0.2-0.8,0.5-0.9c-0.1-0.4,0-0.9-0.4-0.8c0.1-1.1,0.5-2.6,0.4-3.4
			c-0.1-0.3-0.4-0.3,0.1-0.4c-0.4-0.6,0.4-2.1-0.1-2.6c0.6-2.2,0.2-4,0.4-6.7h0.3c-0.5-0.2-0.1-0.8-0.5-0.9c0.6-0.9-0.1-2.8,0-4.4
			c0-1.5,0-2.8-0.1-4.2c-0.1-0.5-0.1-1.2,0.1-1.9c-0.4-1.7-0.2-3.5-0.6-5.7c0-0.2-0.3-0.1-0.4-0.1c-0.1-1.1,1-0.9,1.1-1.6
			c0.5,0.3,1.5-0.2,2,0.3c0.1,0,0-0.3,0.2-0.3c1.1,0.1,2.6-0.1,3.5,0.1c0.9,0.2,1.3-0.3,2.2-0.4c0.3-0.1,0.4,0.1,0.7,0.1
			c0.4-0.1,0.9-0.4,1.3-0.4c0.7-0.1,1.4,0.2,2.1,0c0.1,0,0.1-0.2,0.1-0.4c2-0.2,1.5,2.7,3.1,2.5c-0.2,0.7,0.6,0.7,1,1.1
			c0.5,0.6,1.1,1.8,1.8,2.6c0.3,0.3,0.4,0.4,0.6,0.8c1,1.2,2,2.7,2.8,4.1c0.5,0.8,1,1.3,1.4,2.3c0.6,1.2,1.6,2.1,1.9,3.4
			c1.9,2.3,3.1,5.2,4.6,8.2c0,0.2,0.2,0.1,0.3,0.1c0,0.4,0.2,0.4,0.1,0.8c0.1,0,0.2,0,0.2-0.1c0,1.2,1.4,3,1.6,4.5
			c0.1,0.2,0.3,0.2,0.4,0.4c0.4-3.9,1.7-8.1,1.8-11.8c0.5-0.9,0.6-2.2,1.2-3.1c0-0.2-0.3-0.1-0.2-0.4c1.1-3.6,1.5-6.2,2.8-9.4
			c0-0.3-0.1-0.3-0.3-0.4c0.1-0.1,0.2-0.1,0.4-0.1c0.1-1.2,0.7-1.9,0.4-3.4c0.8-0.9,2.1,0.3,3-0.5h15.5c-0.2-0.3,1.4-0.1,1.6,0.3
			c-0.1,2,0.3,4.2,0.3,6.2c0.1,0.1,0.2,0.1,0.4,0.1c-1,0.9,0.4,2.4-0.5,3.2c0.2,0.1,0.2,0.3,0.4,0.3c-0.1,2.6-0.5,3.8-0.1,5.9
			c-0.1,0.3-0.2,0.4-0.4,0.4c0.3,2.1,0.5,4.3,0.5,6.6c0,0.6-0.1,0.8-0.1,1.6c0,1.1,0.5,1.9,0.2,2.8c0.6,1.5,0.2,3.1,0.8,4.8
			c-0.1,0.2-0.3,0.3-0.4,0.4c0.4,4,1.9,9.1,1.9,13.7c0,0.4,0.4,1.6,0.4,2.4c0.1,0.4-0.3,0.9,0.3,1.2c-0.4,1.8,1.2,4.1,0.4,5.6
			C432.8,168.5,433.3,168.9,433.4,169.6L433.4,169.6z M383.2,170.2V170V170.2z"/>
	</g>
	<g>
		<path class="st0" d="M386.3,101.9c-22.6-6.7-46.2-26.2-55.3-51.2l-0.1-1.2c15,11.8,30.2,14.5,45.1,7.9
			C372,77.9,372.7,93,386.3,101.9L386.3,101.9z"/>
		<path class="st0" d="M423.3,102.9c-5.1,0.8-11.1,1.3-18.6,1.6c-2.2,0.1-4.4,0-6.7-0.2l-1.1-0.4c-21.8-7.4-23-23.4-17.7-48.6
			l0.6-2.8l-2.6,1.3c-15.8,8-31.2,5.3-47.2-8.5l-1-0.9c-0.2-0.7-0.4-1.5-0.5-2.2c-2.2-13.9-2.8-17.7-2.3-32.1c0-1.2,1.1-2.2,2.3-2.1
			c24.3,1.8,53.6-2.1,84.8-8c1.4-0.3,2.6,0.8,2.5,2.2c-1.1,32.7,2.1,65.4,9.2,98.1C425.3,101.5,424.5,102.7,423.3,102.9L423.3,102.9
			z"/>
	</g>
</g>
</svg>
