<?xml version="1.0" encoding="UTF-8"?>
<svg id="Capa_2" data-name="Capa 2" xmlns="http://www.w3.org/2000/svg" viewBox="0 0 433.43 173.64">
  <defs>
    <style>
      .cls-1 {
        fill: #1d1d1b;
        stroke-width: 0px;
      }
    </style>
  </defs>
  <g id="Capa_3" data-name="Capa 3">
    <g>
      <path class="cls-1" d="M42.24,79.84c0,8.01-2.52,12.95-6.91,16.57-3.95,3.18-8.89,5.05-14.26,5.05s-10.31-1.87-14.26-5.05c-4.39-3.62-6.8-8.56-6.8-16.57v-5.49c0-2.41,2.08-4.28,4.5-4.28h7.02c2.41,0,4.28,1.87,4.28,4.28v5.82c0,2.41.55,3.73,1.54,4.72.99.88,2.3,1.43,3.62,1.43,1.54,0,2.96-.66,3.95-1.76.88-.99,1.43-2.19,1.43-4.39v-4.94c0-3.18-.33-5.38-1.21-7.02-1.1-2.08-2.85-3.4-5.49-5.05l-7.13-4.61c-4.94-3.18-8.23-5.71-10.2-9.55-1.54-3.07-2.3-7.13-2.3-13.06v-4.94c0-8.01,2.41-12.95,6.8-16.57,3.95-3.18,8.89-5.05,14.26-5.05s10.31,1.87,14.26,5.05c4.39,3.62,6.8,8.56,6.8,16.57v4.39c0,2.41-2.19,4.28-4.61,4.28h-6.91c-2.41,0-4.28-1.87-4.28-4.28v-4.72c0-2.41-.66-3.73-1.65-4.72-.99-.88-2.3-1.43-3.62-1.43-1.54,0-2.85.66-3.84,1.76-.88.99-1.43,2.19-1.43,4.39v3.62c0,3.07.44,5.16,1.21,6.8.99,2.08,2.74,3.4,5.49,5.16l7.13,4.61c4.72,3.07,8.01,5.49,9.98,8.89,1.87,3.07,2.63,7.13,2.63,13.39v6.69Z"/>
      <path class="cls-1" d="M91.62,96.52c0,1.21-.44,2.41-1.21,3.29-.88.99-2.19,1.65-3.84,1.65-1.54,0-2.74-.55-3.84-1.43l-.44-.33c-.66-.55-1.54-.88-2.63-.88-1.21,0-2.52.66-4.28,1.54-1.65.88-3.84,1.1-6.04,1.1-7.57,0-18.87-6.8-18.87-20.52v-1.1c0-4.61,1.1-11.3,6.58-15.69,4.17-3.29,8.56-4.28,12.29-4.28h4.28c1.65,0,2.74-1.1,2.74-2.52v-6.14c0-2.19-.55-3.51-1.43-4.5-.99-1.1-2.3-1.76-3.84-1.76-1.32,0-2.63.55-3.62,1.43-.99.99-1.65,2.3-1.65,4.5v.99c0,2.41-1.87,4.28-4.28,4.28h-6.69c-2.41,0-4.28-1.87-4.28-4.28v-.55c0-7.68,2.41-12.62,6.69-16.13,3.84-3.07,8.56-4.94,13.83-4.94s9.98,1.87,13.83,4.94c4.28,3.51,6.69,8.45,6.69,16.13v45.21ZM71,72.82c-1.32,0-2.63.55-3.62,1.43-.99.99-1.54,2.3-1.65,4.72v1.76c.11,2.41.66,3.73,1.65,4.72.99.88,2.3,1.43,3.62,1.43,1.54,0,2.85-.66,3.84-1.76.88-.99,1.43-2.19,1.43-4.39v-5.38c0-1.43-1.1-2.52-2.74-2.52h-2.52Z"/>
      <path class="cls-1" d="M116.09,96.41c0,2.41-1.87,4.28-4.28,4.28h-6.69c-2.41,0-4.28-1.86-4.28-4.28V14.44c0-2.41,1.87-4.28,4.28-4.28h6.69c2.41,0,4.28,1.87,4.28,4.28v81.97Z"/>
      <path class="cls-1" d="M124.98,39.68c-.22-2.08-.44-3.62-.44-4.39,0-2.41,1.87-4.28,4.28-4.28h7.13c3.07,0,4.61,1.32,4.83,4.28l3.73,47.84c.11,1.65.88,2.74,2.52,2.74s2.41-1.1,2.52-2.74l3.73-47.84c.22-2.96,1.76-4.28,4.83-4.28h7.02c2.41,0,4.28,1.87,4.28,4.28,0,.77-.22,2.96-.44,5.05l-4.72,50.36c-.66,7.13-2.74,9.98-11.19,9.98h-11.63c-8.45,0-10.42-2.85-11.19-9.98l-5.27-51.02Z"/>
      <path class="cls-1" d="M217.37,96.52c0,1.21-.44,2.41-1.21,3.29-.88.99-2.19,1.65-3.84,1.65-1.54,0-2.74-.55-3.84-1.43l-.44-.33c-.66-.55-1.54-.88-2.63-.88-1.21,0-2.52.66-4.28,1.54-1.65.88-3.84,1.1-6.03,1.1-7.57,0-18.87-6.8-18.87-20.52v-1.1c0-4.61,1.1-11.3,6.58-15.69,4.17-3.29,8.56-4.28,12.29-4.28h4.28c1.65,0,2.74-1.1,2.74-2.52v-6.14c0-2.19-.55-3.51-1.43-4.5-.99-1.1-2.3-1.76-3.84-1.76-1.32,0-2.63.55-3.62,1.43-.99.99-1.65,2.3-1.65,4.5v.99c0,2.41-1.87,4.28-4.28,4.28h-6.69c-2.41,0-4.28-1.87-4.28-4.28v-.55c0-7.68,2.41-12.62,6.69-16.13,3.84-3.07,8.56-4.94,13.83-4.94s9.98,1.87,13.83,4.94c4.28,3.51,6.69,8.45,6.69,16.13v45.21ZM196.75,72.82c-1.32,0-2.63.55-3.62,1.43-.99.99-1.54,2.3-1.65,4.72v1.76c.11,2.41.66,3.73,1.65,4.72.99.88,2.3,1.43,3.62,1.43,1.54,0,2.85-.66,3.84-1.76.88-.99,1.43-2.19,1.43-4.39v-5.38c0-1.43-1.1-2.52-2.74-2.52h-2.52Z"/>
      <path class="cls-1" d="M265.98,96.41c0,2.41-1.87,4.28-4.28,4.28h-6.69c-2.41,0-4.28-1.86-4.28-4.28V14.44c0-2.41,1.87-4.28,4.28-4.28h6.69c2.41,0,4.28,1.87,4.28,4.28v81.97Z"/>
      <path class="cls-1" d="M315.69,96.52c0,1.21-.44,2.41-1.21,3.29-.88.99-2.19,1.65-3.84,1.65-1.54,0-2.74-.55-3.84-1.43l-.44-.33c-.66-.55-1.54-.88-2.63-.88-1.21,0-2.52.66-4.28,1.54-1.65.88-3.84,1.1-6.04,1.1-7.57,0-18.87-6.8-18.87-20.52v-1.1c0-4.61,1.1-11.3,6.58-15.69,4.17-3.29,8.56-4.28,12.29-4.28h4.28c1.65,0,2.74-1.1,2.74-2.52v-6.14c0-2.19-.55-3.51-1.43-4.5-.99-1.1-2.3-1.76-3.84-1.76-1.32,0-2.63.55-3.62,1.43-.99.99-1.65,2.3-1.65,4.5v.99c0,2.41-1.87,4.28-4.28,4.28h-6.69c-2.41,0-4.28-1.87-4.28-4.28v-.55c0-7.68,2.41-12.62,6.69-16.13,3.84-3.07,8.56-4.94,13.83-4.94s9.98,1.87,13.83,4.94c4.28,3.51,6.69,8.45,6.69,16.13v45.21ZM295.06,72.82c-1.32,0-2.63.55-3.62,1.43-.99.99-1.54,2.3-1.65,4.72v1.76c.11,2.41.66,3.73,1.65,4.72.99.88,2.3,1.43,3.62,1.43,1.54,0,2.85-.66,3.84-1.76.88-.99,1.43-2.19,1.43-4.39v-5.38c0-1.43-1.1-2.52-2.74-2.52h-2.52Z"/>
    </g>
    <g>
      <path class="cls-1" d="M6.7,172.57c-.18,0-.18-.18-.44-.27-.09-.09-.35.09-.35.09-.35-.18-.53-.44-.8-.62-.71-.27-1.68.18-2.57-.44.18-.89.09-1.33.71-2.13-.09-.09,0-.35-.27-.35.27-1.86.09-3.46.53-5.41-.27-1.68.18-3.46.18-5.32l-.09-.44c0-1.24.53-2.48.44-3.81,0-.18-.18-.35-.18-.53,0-.27.62-.8,0-1.06.71-5.23.71-11.26.62-17.2.35-4.61,0-9.93-.27-15.25-.18-2.39,0-4.52-.44-6.38-.09-.35-.44-.71-.18-1.15.35.09.62-.09.98.18,1.42-.98,3.28.35,4.97-.53,4.97.89,8.96-.71,14.19-.35.18-.18.62-.09.62-.44.71.62,2.22,0,3.64,0,.35,0,.62.18.98.27,1.42,0,2.84-.18,4.17.18.35,0,.62,0,.89-.09-.09.27,1.33,0,2.04.09,2.22.09,4.26.27,6.3-.18.89.36,2.13-.09,2.93.44.71-.44,2.04-.53,2.84,0,.09,1.95-.09,3.19.18,4.52,0,.18-.18.09-.27.18-.18.97-.62,2.57-1.06,3.28-.27,1.24-.09,1.95-.53,2.75.27.18-.27.89.18.8-.71,1.33-.89,3.01-1.42,4.34-.18,0-.18.09-.44.09.09.35-.09.53-.09.89-.27.09-.62.27-.89.44-.71-1.51-3.72-.53-4.79-1.24-.35.18-.35.09-.71.18-.18-.09-.18-.35-.27-.44-1.51.09-2.84-.35-4.43-.53-2.31-.27-5.5-.35-7.89-.8-.09.18-.35.18-.44.27-1.86-.62-4.97-.09-7.36.09-.27.36-.53,1.86-.18,2.04-.27.53-.44,1.86-.53,3.01-.09,1.06-.18,2.22.18,2.66-.44.98-.18,2.93-.44,4.34,3.99-.27,8.51-1.15,11.62-.71.62-.35,2.57-.8,3.19-.18.18.27.09.89.18,1.33.18.71.18,1.42,0,2.31-.09.53-.44.89-.53,1.15-.09.35.27.18.27.53-.8,0,.09,1.06-.53.89.44,1.33-.44,1.86-.35,3.28.18-.09.18-.18.27-.27-.27,1.15-.27,2.22-.89,3.37-.18,0-.35,0-.35.18-.44.09-.35-.27-.71-.27-2.04.35-4.43-.09-6.65-.09-1.15.09-2.31.44-3.28.09-.71.53-2.13.44-3.28.62.18,2.48-.71,4.61-.35,7.45-.44.89-.53,2.3-.35,3.46-.09.89-.35,1.86-.44,3.28-.09.44.18.98.18,1.33,0,.71-.35,1.42-.27,2.13,0,.18.18.44.18.62-.09.89-.53,1.6.09,2.39-.53.18-.53.62-.89.8-1.51.71-3.81.09-5.05.8-.8-.44-1.6-.44-2.22-.62Z"/>
      <path class="cls-1" d="M51.56,172.93c-.18-1.06.8-2.04,0-2.84-.09-.8.35-1.6.18-2.39,0-.27-.27-.53-.27-.8-.09-1.68.89-3.28.53-5.05.71-.35,1.24,0,1.95.27,1.51-.44,3.99-.09,6.12-.27.09,0,.35-.27.44-.27.18,0,.44.36.62.36,1.68.18,4.52-.62,6.03-.09,3.9-.71,8.07-1.86,11.79-2.31.53-1.06,2.57-.35,3.46-.44.18.27.62.71.35,1.06.89.53.8,1.24,1.06,2.22.35,1.51-.09,2.75.18,4.17-.35.09-.09.35-.35.44.09.98-.53,1.6-.35,2.57-.27.35-.62.8-1.06,1.06-5.76.35-10.64.8-16.67.89-.62.09-1.24.35-1.77.35-.62,0-1.33-.27-1.86-.18-1.24,0-2.75.44-3.99.62-.62.09-1.15.09-1.69.27-.53.09-.8.35-1.24.44-.89.18-2.22-.09-3.01.18-.09-.18-.27-.18-.44-.27ZM53.69,155.19c-.71-.35-.53-.98-.44-1.68.18-1.51-.27-3.55.18-4.97-.89-3.37.44-8.42.18-11.88.35-.62.18-1.42.18-2.22,0-3.19-.18-7.71-.18-9.93.18-.18.18-.53.27-.71,0-3.19.71-7.98.27-11.26.09-.18-.09-.18-.27-.18.09-.44.35-.8.35-1.06.27-.36.71,0,.8.18,1.77-.44,4.26-.27,6.65.18.35.09.62.35.89.44,1.06.18,2.22,0,3.28.09l6.47.27c1.06.09,2.13-.18,3.01-.09.71.09,1.42.53,2.13,0,1.6-.09,3.37-.09,4.43.62.27-.09.44-.18.8-.18.18.09.35.35.53.53-.62,3.81-2.13,7.54-1.77,11.35-.18.35-.53.62-.71.98.09.09.09.18.09.27-.09.09-.09,0-.09-.09,0,.18-.18.27-.35.44-1.24-.09-2.31-.35-3.46-.53-1.24-.18-2.22-.53-3.28-.8-.27,0-.44.09-.71,0-.98-.18-1.86-.71-2.84-.89-2.13-.27-4.08-.18-6.3-.35-.44,1.6.18,3.55-.18,5.14,1.15.89,3.1.09,4.79.71,1.33-.44,2.31.62,3.28.71.8,0,1.51-.27,2.39,0,.18,0,.35.27.53.27.62.09,1.24-.09,1.69.27-.09.53.62,1.42.35,2.13-.09.27-.18.18-.27.35-.18.89-.18,1.86-.27,2.84-.09.35-.27,2.04-.35,2.04-.71.8-3.37,0-4.52-.09-1.51-.09-2.75-.44-4.17-.62-1.24-.09-1.86,0-3.01.09-.62,2.04.44,4.52,0,6.47,1.33.09,3.01.18,4.08,0-.09.09-.09.18,0,.18,3.37-.44,6.03.89,9.93.18.35-.18.27.09.44.18.18-.27.71-.27.98-.53.27.09.44.35.71.44-.44,1.06.27,2.04.44,3.28.09.18-.09.44-.09.8.09,1.15.62,2.57.44,3.64-.18.53-.8.89-.44,1.6-.18.18-.35.35-.53.62-.71,0-.89.09-1.51,0-2.31.62-5.05.35-7.36.53-2.84.27-5.32-.27-7.98.53-1.6-.53-3.72.44-5.76.09-1.24-.18-2.48-.8-3.72-.35Z"/>
      <path class="cls-1" d="M115.93,172.22c-.89,0-1.77.09-2.66-.44-1.15.44-2.22-.44-3.19-.8-1.33-.53-2.84-.27-3.72-.62l-.89-.62c-1.51-.71-3.55-.71-4.52-2.31-1.06-.09-1.24-1.06-2.13-1.33.09-.27-.18-.27-.09-.44-.18-.18-.44-.27-.53-.44-.98-1.95-2.66-2.84-3.99-4.34s-2.13-3.9-2.84-5.85c-.89-.97-1.15-2.66-2.13-3.63.27-1.15-.44-2.22-.62-3.46-.27-1.68-.35-3.55-.44-5.14,0-3.01.27-6.12,1.77-8.51.09-.89.53-1.51.89-2.13-.18-1.33.8-2.84.8-4.26,1.42-2.22,2.22-4.61,3.81-6.74.27.09.27-.09.44-.09,1.51-1.86,3.02-3.72,4.79-5.32.27.09.27-.18.53-.09,1.42-1.86,4.7-1.95,6.47-3.46,2.31-.62,4.97-1.06,7-1.51,3.55.27,7.18-.27,10.73.53.8.62,1.86.98,3.01,1.24,1.15.98,3.46,1.33,4.08,2.57.27-.18.44.27.62,0,3.72,3.46,8.42,5.05,9.58,10.91,0,.35-.44-.27-.27.27.27.09.8,1.15.35,1.69-3.02.71-5.76,1.6-8.78,2.48-.27,0-.09.35-.27.35-.62-.09-1.06.27-1.42-.09-.27.18-.62.71-.89.71-1.15-.09-.62-1.6-.8-2.57-.27-1.33-1.33-1.95-2.04-2.39,0-.27-.44-.09-.44-.53-2.31-1.06-4.88-1.95-7.45-2.57-.71.35-1.86.18-2.48.62-.35-.09-.44-.09-.62-.09-.35.18.27.18.09.44-.98.35-1.77.18-2.75.27-2.48.35-3.55,2.93-5.59,3.81.09.27-.18.27-.09.53-.27-.09-.18.18-.53.09-1.6,2.48-4.43,3.99-5.59,7-.62.18-.44,1.15-1.06,1.33-.09.98-.44,1.77-.89,2.39-.35,2.13-1.15,3.9-.8,5.94.27,1.33,1.33,2.48,1.42,3.99,1.6,1.42,1.77,3.72,3.01,5.32,1.33,1.77,3.28,2.3,5.32,3.1.18.18,0,.18,0,.35,1.33.62,3.28.71,4.7,1.6,4.52-.44,7.45-2.39,11.35-3.99.09-1.33,1.15-1.6,2.13-1.95.09-.36,0-.62-.18-.89.27,0,.27-.27.53-.35,3.19.89,4.43,3.55,7.89,4.17,1.15,1.15,2.66.98,3.37,2.31,2.75,0,2.48,2.66.71,3.37-.09.44-.18.53.09.89-1.6.8-1.68,2.48-2.57,3.64-.09.09-.27.09-.44.09-1.15,1.6-2.84,2.57-4.7,3.37-1.24,1.86-4.52,2.22-7,2.39-1.24.8-3.64.53-5.76.62-1.33-.71-3.55-.62-4.34-1.42Z"/>
      <path class="cls-1" d="M148.2,172.57c.27-.35.35-.8.35-1.42-.09-.27-.18.27-.53.09,0-3.28.35-7.18.35-10.55.09-.44-.09,0,0-.44.62-2.22-.09-4.79-.18-7.71,0-1.06.18-2.57.18-3.81.09-.8.09-1.6.35-2.04-.35-3.46.62-7.45-.18-11.35.18-.98.09-1.86-.18-2.66.62-.62.09-2.04,0-3.01,0-.27.27-.71.27-1.06,0-1.33-.44-2.93-.27-4.17.09-.18.09-.36.35-.44,0-.18-.27-.09-.35-.27-.09-3.81-.09-7-.27-10.2-.27-.35-.35-.62-.53-.89.44-.8,2.13-.18,2.57-.71,1.6-.44,3.72-1.15,6.21-.62,1.33.27,2.48.89,3.99.97.09.53.09.8.35.89-.09.27-.27.44-.35.62.53,2.48.62,6.21.71,9.31-.62,2.3-.09,7.89-.35,10.73.44.27,0,2.04.09,3.1,2.13-.27,4.17-.35,6.12-.62,1.6-.18,3.28-.71,4.97-.53.18-.09,0-.18.27-.27,2.66-.44,6.12-.98,9.49-1.06.18-4.34.18-10.11.44-13.48-.71-2.66.8-6.65-.8-8.78l.27-.62c1.15-.09,2.04.27,3.01-.35.44-.09.44.44.53-.09.35-.09.44.09.62.18.53-.44,2.57.27,3.37-.18,1.42.35,3.19.71,4.52.44,0,.18-.18.18-.18.35.27.09.18-.27.44-.18-.27.35.18.18.44.35.18-.18.09-.53.62-.35,0,.18-.27.09-.27.27.27,0,.35,0,.35-.18.18,0,.09.36.35.27-.71,2.66.44,4.79.44,7.62,0,2.39-.27,3.9-.44,6.38-.09.35.35.18.35.44h-.35c.18,1.24,0,2.57-.09,3.9-.09.8.18,1.95.18,2.93v1.68c.09,1.15,0,2.22,0,3.28,0,1.33.35,2.66.35,3.9,0,5.41-.18,10.64.18,16.4.62,1.42.35,3.1.27,4.52,0,.27.27.53.27.8s-.27.53-.35.8c-.09,1.42,0,3.72-.18,5.05.18.44.35.44.18,1.06-.71.53-1.6.44-2.39.89-.27.27-.18.35-.27.71-.62.44-2.75-1.77-3.28-1.24-2.04.44-2.57,1.42-4.34,1.6-.18-.44-.71,0-.89-.53-1.15.09-2.66-.27-3.9-.18-.18-.27-.53-.44-.8-.62,0-2.22.89-3.28.71-5.32.53-2.39-.09-4.61.35-6.92-.18-1.42.09-2.93,0-4.26-.09-2.84-.44-5.76-.18-8.78-3.1-.09-4.88.09-7.09-.44-3.55.27-7.63-.18-11.79-.44-.09.53-.09,2.22.18,2.66-.09.27-.35.8.18.89-.71,0-.18,1.24-.18,1.86.09,1.51-.35,2.22-.27,3.28,0,.35.27.71.27,1.06.09.8,0,1.68,0,2.48.09,4.61-.18,9.58.27,12.68-.09.36,0,.27-.27.53.35.18.44-.27.8.09-.09.71-.09.89-.44,1.42-1.95-.27-3.55,1.15-5.59.18-.18.09-1.51.36-1.95.36-1.95.18-4.26.18-6.47.35-.27-.18-.35-.44-.62-.62Z"/>
      <path class="cls-1" d="M229.24,172.84c-1.15,0-2.39.53-3.37-.27-2.31-.18-4.17-.71-7.18-.71-.27,0-.27-.18-.35-.27-2.57-.18-4.88-.09-7.18-.18-1.06,0-2.66-.18-3.46.44-.62.18-1.77-.09-2.31.09-.44-.27-.8-.53-1.6-.53,0-.09.18-.18.18-.27-.71,0-1.68,0-2.04-.62.53-2.04.53-4.34.8-6.3.53-1.42.35-3.01.71-4.34,0-.18.27-.09.35-.09.18-.44-.27-.18-.18-.53.44.09,0-.98.62-1.15,1.42,0,2.22.62,3.64.62v.35c1.33-.09,1.86.62,3.01.8.71.62,2.04.71,3.1,1.06.27-.27.44.09.62-.27.27.09-.18.27.09.44.09,0,.18,0,.18.09,1.95-.27,3.81.09,5.05-.53,4.17.36,10.02-.71,14.54-.89.18,0,.09-.18.18-.35,1.68-.09,4.26-.09,6.83,0-.18.35.35.44.44.71.18.44,0,1.6.18,2.3,0,.36.53.62.09.8.62.89.09,1.24.53,2.04-.09-.09-.18-.18-.35-.18.35.35.35,1.06.44,1.77h-.44c.35.27.35,1.15-.18,1.24.35.18-.18.53.35.53,0,.18-.27.09-.35.09.18.18.44.09.35.35-.35.27-.09.89,0,1.86-.18,0-.09-.27-.27-.27-.09.71.09,1.51-.53,2.22-1.06.62-1.86,0-3.28-.27-1.77-.18-3.28.18-5.14.35-1.42.09-2.75-.27-4.08-.18ZM232.7,153.51c-1.68-2.22-2.22-6.83-2.13-9.93-5.32-.18-7.89-.36-12.5-1.77-.53,2.04-.53,4.34-1.24,5.76.36.44.09,1.69-.35,2.13,0,.53-.09.89-.35,1.24.89,1.77-2.22,3.1-4.17,2.48-.18,0-.35.09-.44.27-1.15-.18-1.86-.18-3.02-.18-.09-.44-.71-.44-1.24-.44-.71-.44-1.51-.8-2.22-1.33-.09.09-.53-.09-.44.09-1.06-.53-.35-1.95-.18-3.01.09-.44-.35-.44-.27-.89.53,0,.62-.98.53-1.15,1.15-2.57,1.95-5.67,2.75-8.51.27-.18.35.09.53-.09,0-.18.09-.35-.09-.35,1.15-2.13,1.24-5.67,2.57-8.42.27-1.51.35-2.75,1.15-3.81,0-.27-.09-.44-.27-.53.27-.18.35-.62.62-.8.27-2.66,1.24-5.76,2.04-8.16,0-.18.18-.89.18-1.06,0,0-.27-.18-.35-.09.09-.09.35-.09.44-.18.18-.18.09-.8.18-1.24.27-.71.8-.97.53-2.22,4.61-.8,7.54.89,11.08.71v.35c1.95.35,4.61.71,6.47,1.86.35,2.13.27,4.34,1.24,6.38.27,2.13.44,4.26,1.6,5.67-.27.44.18.71,0,1.06.89,1.51,1.06,4.43,1.95,6.29-.18.36.27.71,0,.89.8,1.33.89,3.01,1.15,4.61,0,.18.09.27.27.27,0,2.75.89,7.36,2.84,9.13-.18.62.71,1.42.53,2.13.44.09.53.71.71,1.15-.27.35-.62.53-.71.98-1.77.09-2.31,1.06-3.64.97-.09.18-.35.18-.35.44-1.15.18-2.04-.18-2.75,0-.8-.35-1.51-.8-2.66-.71ZM223.48,119.11c-.18.27-.53.44-.53.89,0,.18.18.09.18.27l-.62,2.84c0,.18-.27.27-.27.44-.09.27.27.71.09.97,0,.09-.27.09-.35.18-.98,3.81-.89,7.09-2.04,10.73.8-.09,1.6.18,1.86-.27,1.68.71,4.34,0,6.74.35-1.77-5.5-3.72-10.64-5.05-16.4Z"/>
      <path class="cls-1" d="M252.65,172.93c-1.24.09-2.48-.53-4.17-.53-.27-.44-.44-.98,0-1.42,0-.27-.36-.09-.44-.27.09-.62.18-1.42-.27-1.68.53-2.57.18-6.83.27-9.49.62-.35,1.15-.27,1.68-.62,3.1.18,7-1.06,9.93-1.33,1.06-.09,2.22.18,3.28-.09.18.62,1.15.35,1.51.8-.09.62-.09,1.06,0,1.68.18.98-.44,1.77-.35,4.97.09,2.57.53,5.32-.71,7.18-1.51.71-3.37,0-4.88.62-1.6,0-3.81.18-5.59.44-.18,0-.09-.35-.27-.27Z"/>
      <path class="cls-1" d="M294.94,172.22c-.89,0-1.77.09-2.66-.44-1.15.44-2.22-.44-3.19-.8-1.33-.53-2.84-.27-3.72-.62l-.89-.62c-1.51-.71-3.55-.71-4.52-2.31-1.06-.09-1.24-1.06-2.13-1.33.09-.27-.18-.27-.09-.44-.18-.18-.44-.27-.53-.44-.98-1.95-2.66-2.84-3.99-4.34s-2.13-3.9-2.84-5.85c-.89-.97-1.15-2.66-2.13-3.63.27-1.15-.44-2.22-.62-3.46-.27-1.68-.35-3.55-.44-5.14,0-3.01.27-6.12,1.77-8.51.09-.89.53-1.51.89-2.13-.18-1.33.8-2.84.8-4.26,1.42-2.22,2.22-4.61,3.81-6.74.27.09.27-.09.44-.09,1.51-1.86,3.01-3.72,4.79-5.32.27.09.27-.18.53-.09,1.42-1.86,4.7-1.95,6.47-3.46,2.31-.62,4.97-1.06,7-1.51,3.55.27,7.18-.27,10.73.53.8.62,1.86.98,3.01,1.24,1.15.98,3.46,1.33,4.08,2.57.27-.18.44.27.62,0,3.72,3.46,8.42,5.05,9.58,10.91,0,.35-.44-.27-.27.27.27.09.8,1.15.35,1.69-3.01.71-5.76,1.6-8.78,2.48-.27,0-.09.35-.27.35-.62-.09-1.06.27-1.42-.09-.27.18-.62.71-.89.71-1.15-.09-.62-1.6-.8-2.57-.27-1.33-1.33-1.95-2.04-2.39,0-.27-.44-.09-.44-.53-2.3-1.06-4.88-1.95-7.45-2.57-.71.35-1.86.18-2.48.62-.35-.09-.44-.09-.62-.09-.35.18.27.18.09.44-.97.35-1.77.18-2.75.27-2.48.35-3.55,2.93-5.59,3.81.09.27-.18.27-.09.53-.27-.09-.18.18-.53.09-1.6,2.48-4.43,3.99-5.59,7-.62.18-.44,1.15-1.06,1.33-.09.98-.44,1.77-.89,2.39-.35,2.13-1.15,3.9-.8,5.94.27,1.33,1.33,2.48,1.42,3.99,1.6,1.42,1.77,3.72,3.01,5.32,1.33,1.77,3.28,2.3,5.32,3.1.18.18,0,.18,0,.35,1.33.62,3.28.71,4.7,1.6,4.52-.44,7.45-2.39,11.35-3.99.09-1.33,1.15-1.6,2.13-1.95.09-.36,0-.62-.18-.89.27,0,.27-.27.53-.35,3.19.89,4.43,3.55,7.89,4.17,1.15,1.15,2.66.98,3.37,2.31,2.75,0,2.48,2.66.71,3.37-.09.44-.18.53.09.89-1.6.8-1.68,2.48-2.57,3.64-.09.09-.27.09-.44.09-1.15,1.6-2.84,2.57-4.7,3.37-1.24,1.86-4.52,2.22-7,2.39-1.24.8-3.64.53-5.76.62-1.33-.71-3.55-.62-4.34-1.42Z"/>
      <path class="cls-1" d="M362.77,135.16c-.27.98-.27,2.13-.53,2.93-.18.62-.71.89-.98,1.42-.62.89-.97,2.04-1.77,2.48-.62,1.95-1.86,3.37-3.28,4.61,0,.27-.27.44-.35.71-1.86,1.77-4.88,3.1-7.8,2.57-2.84.35-7.36.53-9.58-.8-1.86-.35-3.72-.71-5.14-1.68l-.35-.27c-1.6-1.51-3.28-2.84-4.43-4.61-.27-.53-.44-1.15-.8-1.68-.89-1.6-1.68-2.84-2.22-5.05-.27-.98-.53-2.31-.27-2.84,0-.09-.18-.09-.35-.09-.09-.27.35-.62-.09-.62,0-4.34,1.06-7.18,2.48-10.64.98-1.06,1.51-2.31,2.48-2.93v-.62c.89-.53,1.33-1.51,1.68-2.57,1.15-.8,3.01-2.22,4.26-2.93,1.77-.18,3.37-1.33,5.32-1.42,1.24-.09,2.66,0,3.63.53.8-.35,2.39-.44,3.37-.27,1.06.18,1.77.8,2.93,1.42.98.44,2.13.71,2.93,1.15,1.06.62,1.6,1.86,2.57,2.31.27.71.62,1.24,1.24,1.51-.09.44.09.53.18.71.44.53.89.98,1.33,1.6l1.33,1.33c.89,1.15.98,2.75,1.51,3.99.18.35,1.33,2.04,1.42,2.84,0,.27-.35.62-.35.98s.35.71.35.97c0,.53-.09.89,0,1.68.09.98-.44,2.04-.71,3.28ZM361.17,160.69c0,.18-.18.18-.36.18-.35,2.93.71,5.59-.27,8.51-1.6.89-4.34.09-7,.35-1.51.18-3.01.18-4.34.27-.62.09-1.15.53-1.77.44-1.33.53-3.99.53-5.67.98-.53.18-1.68.27-2.31.62-1.06.62-3.99,1.06-5.23.62-.18.18-.35.27-.62.44-.27,0-.18-.27-.35-.27-.27.09-.44.18-.53.35-.71,0-1.15-.18-1.95-.09-.53-.8-.89-1.77-1.6-2.39-.53-2.04-.35-3.72-.53-5.5,0-.8.35-1.6.35-2.31,0-1.24.09-2.48-.53-3.28.27,0,.27-.27.44-.44-.09-.44-.44-.62-.62-.98.35,0,.62-.09.8-.35.27.09.89.18.98-.09,1.6.18,5.05-.71,6.21-.62.18,0-.18-.27,0-.53.71.35,1.6-.09,2.57.09.35-.09,0-.18.27-.36,1.42.53,4.34,0,6.21-.35,3.46.53,7.18-.35,10.2-.44.44,0,.53.35.97.27.18,0,.09-.09,0-.09.62.09,1.6-.35,2.66-.09.27.71.44.98.53,1.51.27-.09,1.42,2.3,1.51,3.55ZM354.61,125.93c-.18,0-.27-.09-.27-.18-.18-1.6-.53-2.3-1.42-3.1-.36,0-.27-.09-.62,0,.18-.36-.18-.18-.09-.44-.18-.09-.18.09-.27.18-1.6-1.42-3.64-1.42-5.85-1.86-.09,0-.09.18-.18.18-.71-.18-2.31-.62-3.1-.35-.27.09-1.42.98-1.68,1.06-1.15.71-1.86,2.13-2.57,3.1-.27-.09-.27.18-.44.09-.35.71-.62,1.6-1.24,2.04.18.44-.8,1.24-.27,1.69-.35.18-.44.62-.18.89-.35.35-.53,1.15-.62,1.6-.09,1.24.18,2.84.71,3.9.09,1.42,1.51,3.01,2.22,4.26,3.01,1.15,5.67-.09,8.07-.62,1.24-.18,2.3-.62,2.84-1.42q.27-.09.44-.09c.53-.44,1.06-.98,1.68-1.24,1.06-1.77,2.04-3.64,2.57-5.94-.35-1.42.09-2.66.27-3.72Z"/>
      <path class="cls-1" d="M433.43,169.65c-.62-.09-.35.18-.53.44-1.68-.09-3.19.8-4.43.18,0,.27-.35.44-.71.27.09-.09.35,0,.35-.18-3.01.35-8.16,1.06-11.53,1.33,0-.09-.09,0-.18-.09-.62-1.15.09-3.01,0-4.61,0-.44-.27-.89-.27-1.24-.09-.89.44-1.86.18-2.66h.27c0-.09-.18-.09-.27-.09-.09-1.06.18-2.04.27-3.1.18-2.57-.89-4.79-.44-7.18-.18-2.13-.27-11.17-.18-13.48-.53-1.6-.71-3.81-.89-5.67-.62,1.33-1.33,2.22-1.42,3.81-.09.09-.27.09-.44.09-.09.89-1.06,4.08-.98,4.88-.89.44-.8,2.04-1.42,2.31.09.35-.71,4.34-.8,4.61-.09.18,0,.27.18.27-.8,1.42-1.42,3.28-1.6,4.7,0,.44-.89,1.77-.8,2.22.18.44.18,0-.09.44-.53,1.24-.8,2.84-1.15,4.08-.27,1.15-.8,2.22-1.24,3.37-.09.35.18.27.09.62-1.06,1.42-4.34,2.13-5.85,1.33-.09,0-.09.18-.09.27-.8.18-1.95-.09-1.6-1.15-.62-.89-.98-2.13-1.51-3.01v-.62c-.18-.44-.44-.89-.71-1.24-.27-1.33-.8-2.04-1.24-2.93-.62-2.57-1.6-4.7-2.31-7.18,0-.18-.09-.27-.27-.27-.44-1.86-1.24-3.46-1.86-5.5-.35-1.68-.8-2.84-1.6-3.9-.09-.98-.53-1.77-1.06-2.39.27-.53-.35-.89-.27-1.51-.53-1.24-.89-2.57-1.24-3.72,0-.18-.18-.09-.27-.09-.09-1.51-.89-2.75-1.6-4.26-.27,2.93-.53,6.74-.18,10.02-.36,1.77-.53,3.72-.18,5.32-.8,2.13-.18,5.23-.53,7.8.09.27.09.62.44.62-.71,1.33,0,3.81-.62,5.23,0,1.51,0,3.72-.27,4.79.09,2.39,0,4.43.62,7.09,0,.18-.27.09-.27.35.09.09.27.27.27.18.09.27.27.44.53.71,0,.27-.27.35-.18.71-1.42,0-2.75,0-4.08.27-1.06.09-2.3.18-3.19.44-1.51.35-2.75,1.42-4.17,1.06-.09-.09-.18-.18-.18-.27-1.06-.35-1.95-.18-3.02-.8.27-.44.36-1.06-.18-1.42.18-1.42.44-2.75.09-3.72.71-4.7.09-8.78.62-14.01,0-.44.18.18.35.09.09-.27-.27-.27-.35-.44.09-2.04.27-3.19.18-5.85,0-.35.27.09.44-.18,0-.27-.18-.35-.18-.62-.27.18.27.53-.27.53-.09-.44,0-.44,0-.98.18,0,.18.09.18.18.18,0,.09-.27.09-.35,0-.27-.18.09-.35-.09.09-.35.18-.8.53-.89-.09-.35,0-.89-.44-.8.09-1.06.53-2.57.44-3.37-.09-.27-.44-.27.09-.35-.36-.62.35-2.13-.09-2.57.62-2.22.18-3.99.44-6.74h.27c-.53-.18-.09-.8-.53-.89.62-.89-.09-2.75,0-4.43,0-1.51,0-2.75-.09-4.17-.09-.53-.09-1.24.09-1.86-.35-1.68-.18-3.46-.62-5.67,0-.18-.27-.09-.35-.09-.09-1.06.97-.89,1.15-1.6.53.35,1.51-.18,2.04.27.09,0,0-.27.18-.27,1.06.09,2.57-.09,3.55.09.89.18,1.33-.35,2.22-.44.27-.09.44.09.71.09.44-.09.89-.36,1.33-.44.71-.09,1.42.18,2.13,0,.09,0,.09-.18.09-.36,2.04-.18,1.51,2.66,3.1,2.48-.18.71.62.71.98,1.06.53.62,1.06,1.77,1.77,2.57.27.27.35.44.62.8.98,1.24,1.95,2.66,2.84,4.08.53.8.97,1.33,1.42,2.31.62,1.15,1.6,2.13,1.86,3.37,1.86,2.31,3.1,5.23,4.61,8.16,0,.18.18.09.27.09,0,.35.18.44.09.8.09,0,.18,0,.18-.09,0,1.24,1.42,3.01,1.6,4.52.09.18.27.18.35.36.35-3.9,1.68-8.07,1.77-11.79.53-.89.62-2.22,1.24-3.1,0-.18-.27-.09-.18-.36,1.15-3.55,1.51-6.21,2.75-9.4,0-.27-.09-.35-.27-.44.09-.09.18-.09.35-.09.09-1.24.71-1.86.35-3.37.8-.89,2.13.27,3.01-.53h15.52c-.18-.35,1.42-.09,1.6.35-.09,2.04.27,4.17.27,6.21.09.09.18.09.36.09-.98.89.35,2.39-.53,3.19.18.09.18.27.44.27-.09,2.57-.53,3.81-.09,5.85-.09.27-.18.35-.35.44.27,2.13.53,4.34.53,6.56,0,.62-.09.8-.09,1.6,0,1.06.53,1.95.18,2.84.62,1.51.18,3.1.8,4.79-.09.18-.27.27-.36.44.44,3.99,1.86,9.13,1.86,13.66,0,.35.35,1.6.35,2.39.09.35-.27.89.27,1.24-.36,1.77,1.24,4.08.35,5.59.27.62.8.98.89,1.77ZM383.24,170.18v-.18.18Z"/>
    </g>
    <g>
      <path class="cls-1" d="M386.3,101.94c-22.63-6.74-46.17-26.21-55.31-51.19l-.12-1.18c15.02,11.8,30.18,14.46,45.12,7.88-4.02,20.5-3.26,35.59,10.3,44.48Z"/>
      <path class="cls-1" d="M423.28,102.88c-5.13.76-11.06,1.3-18.62,1.59-2.18.09-4.41.02-6.69-.19l-1.06-.36c-21.79-7.36-22.98-23.4-17.66-48.62l.6-2.83-2.58,1.32c-15.77,8.04-31.22,5.27-47.22-8.48l-1.03-.88c-.19-.74-.37-1.47-.53-2.21-2.22-13.93-2.76-17.71-2.29-32.09.04-1.23,1.1-2.15,2.32-2.06,24.3,1.81,53.61-2.06,84.76-8.02,1.35-.26,2.6.8,2.55,2.17-1.11,32.7,2.12,65.4,9.22,98.08.26,1.22-.54,2.41-1.78,2.59Z"/>
    </g>
  </g>
</svg>